HIERARCHY
ROOT SpineBase
{
  OFFSET 0.000000 0.000000 0.000000
  CHANNELS 6 Xposition Yposition Zposition Zrotation Xrotation Yrotation
  JOINT SpineMid
  {
    OFFSET -0.000000 31.565109 0.000000
    CHANNELS 3 Zrotation Xrotation Yrotation
    JOINT SpineShoulder
    {
      OFFSET 0.145973 23.443546 -0.767822
      CHANNELS 3 Zrotation Xrotation Yrotation
      JOINT Neck
      {
        OFFSET 0.105583 7.757601 -0.590404
        CHANNELS 3 Zrotation Xrotation Yrotation
        JOINT Head
        {
          OFFSET 4.891324 11.956457 2.148755
          CHANNELS 3 Zrotation Xrotation Yrotation
          End Site
          {
            OFFSET 0 0 0
          }
        }
      }
      JOINT ShoulderLeft
      {
        OFFSET -7.403705 -2.854052 -14.484721
        CHANNELS 3 Zrotation Xrotation Yrotation
        JOINT ElbowLeft
        {
          OFFSET -3.277418 -21.708689 -7.663257
          CHANNELS 3 Zrotation Xrotation Yrotation
          JOINT WristLeft
          {
            OFFSET 28.086757 -10.279644 -0.811468
            CHANNELS 3 Zrotation Xrotation Yrotation
            JOINT HandLeft
            {
              OFFSET 5.702487 0.504105 -1.434543
              CHANNELS 3 Zrotation Xrotation Yrotation
              JOINT HandTipLeft
              {
                OFFSET 8.070134 -2.387297 -2.321741
                CHANNELS 3 Zrotation Xrotation Yrotation
                End Site
                {
                  OFFSET 0 0 0
                }
              }
              JOINT ThumbLeft
              {
                OFFSET -0.528492 -3.444407 -2.100022
                CHANNELS 3 Zrotation Xrotation Yrotation
                End Site
                {
                  OFFSET 0 0 0
                }
              }
            }
          }
        }
      }
      JOINT ShoulderRight
      {
        OFFSET 11.509707 -4.189904 13.247438
        CHANNELS 3 Zrotation Xrotation Yrotation
        JOINT ElbowRight
        {
          OFFSET 3.978611 -25.770389 -3.943284
          CHANNELS 3 Zrotation Xrotation Yrotation
          JOINT WristRight
          {
            OFFSET 3.318075 -3.303244 -29.226374
            CHANNELS 3 Zrotation Xrotation Yrotation
            JOINT HandRight
            {
              OFFSET 8.788452 0.527032 -5.222257
              CHANNELS 3 Zrotation Xrotation Yrotation
              JOINT HandTipRight
              {
                OFFSET 4.511618 0.919414 -2.086165
                CHANNELS 3 Zrotation Xrotation Yrotation
                End Site
                {
                  OFFSET 0 0 0
                }
              }
              JOINT ThumbRight
              {
                OFFSET -3.091030 -1.798999 -1.134356
                CHANNELS 3 Zrotation Xrotation Yrotation
                End Site
                {
                  OFFSET 0 0 0
                }
              }
            }
          }
        }
      }
    }
  }
  JOINT HipLeft
  {
    OFFSET -3.711889 1.666792 -9.164340
    CHANNELS 3 Zrotation Xrotation Yrotation
    JOINT KneeLeft
    {
      OFFSET -8.741884 -34.411321 2.250498
      CHANNELS 3 Zrotation Xrotation Yrotation
      JOINT AnkleLeft
      {
        OFFSET -5.782165 -33.637010 3.950266
        CHANNELS 3 Zrotation Xrotation Yrotation
        JOINT FootLeft
        {
          OFFSET 7.769955 -4.505551 -5.696545
          CHANNELS 3 Zrotation Xrotation Yrotation
          End Site
          {
            OFFSET 0 0 0
          }
        }
      }
    }
  }
  JOINT HipRight
  {
    OFFSET 4.836260 0.133513 1.941361
    CHANNELS 3 Zrotation Xrotation Yrotation
    JOINT KneeRight
    {
      OFFSET -5.241367 -34.378183 5.000657
      CHANNELS 3 Zrotation Xrotation Yrotation
      JOINT AnkleRight
      {
        OFFSET -6.415449 -32.927114 3.390652
        CHANNELS 3 Zrotation Xrotation Yrotation
        JOINT FootRight
        {
          OFFSET 3.163058 -8.405122 -3.148554
          CHANNELS 3 Zrotation Xrotation Yrotation
          End Site
          {
            OFFSET 0 0 0
          }
        }
      }
    }
  }
}
MOTION
Frames: 13
Frame Time: 0.033333
-57.917350 75.576906 368.611999 0.000000 0.000000 -52.414231 -0.000000 0.000000 52.414231 -0.000000 0.000000 0.000000 -0.000000 0.000000 0.000000 0.000000 0.000000 0.000000 -0.000000 0.000000 0.000000 -0.000000 0.000000 0.000000 -0.000000 0.000000 0.000000 -0.000000 0.000000 0.000000 0.000000 0.000000 0.000000 0.000000 0.000000 0.000000 -0.000000 0.000000 0.000000 -0.000000 0.000000 0.000000 -0.000000 0.000000 0.000000 -0.000000 0.000000 0.000000 0.000000 0.000000 0.000000 0.000000 0.000000 0.000000 -0.000000 0.000000 52.414231 -0.000000 0.000000 0.000000 -0.000000 0.000000 0.000000 0.000000 0.000000 0.000000 -0.000000 0.000000 52.414231 -0.000000 0.000000 0.000000 -0.000000 0.000000 0.000000 0.000000 0.000000 0.000000
-57.939116 75.538187 368.648752 -0.016756 -0.012393 -52.743877 0.000279 0.020839 52.743875 -0.000000 0.000000 0.000000 -0.000000 0.000000 0.000000 0.000000 0.000000 0.000000 -0.000000 0.000000 0.000000 -1.064232 -0.484978 -1.278408 0.153417 -0.048837 4.428253 -0.860454 0.622953 -1.154084 0.000000 0.000000 0.000000 0.000000 0.000000 0.000000 -0.000000 0.000000 0.000000 -0.194982 -1.791765 -0.090520 -1.567703 0.507196 2.981499 -7.549537 -4.618611 3.647528 0.000000 0.000000 0.000000 0.000000 0.000000 0.000000 0.000279 0.020839 52.743875 -0.000000 0.000000 0.000000 -5.418716 -0.267346 6.963472 0.000000 0.000000 0.000000 0.000279 0.020839 52.743875 -0.000000 0.000000 0.000000 2.520133 -2.329669 -1.768467 0.000000 0.000000 0.000000
-57.952033 75.503133 368.679882 -0.027462 -0.035293 -53.051561 -0.011698 0.043162 53.051557 -0.000000 0.000000 0.000000 -0.000000 0.000000 0.000000 0.000000 0.000000 0.000000 -0.000000 0.000000 0.000000 -1.967863 -0.890946 -2.408457 0.614434 0.073456 7.321416 -1.637552 1.067562 -1.311124 0.000000 0.000000 0.000000 0.000000 0.000000 0.000000 -0.000000 0.000000 0.000000 -0.279955 -2.910745 -0.588237 -2.643711 0.636052 5.935613 -13.206520 -8.136082 5.753867 0.000000 0.000000 0.000000 0.000000 0.000000 0.000000 -0.011698 0.043162 53.051557 0.437921 -0.871670 0.204553 -10.735537 -0.236106 13.127851 0.000000 0.000000 0.000000 -0.011698 0.043162 53.051557 -0.000000 0.000000 0.000000 4.759612 -4.552564 -3.305422 0.000000 0.000000 0.000000
-57.956102 75.471745 368.705391 -0.032134 -0.068672 -53.338878 -0.035901 0.066780 53.338880 -0.000000 0.000000 0.000000 -0.000000 0.000000 0.000000 0.000000 0.000000 0.000000 -0.000000 0.000000 0.000000 -2.668579 -1.212228 -3.344552 1.207817 0.334968 8.978231 -2.225736 1.338979 -0.840433 0.000000 0.000000 0.000000 0.000000 0.000000 0.000000 -0.000000 0.000000 0.000000 -0.260586 -3.378242 -1.488065 -3.230572 0.464018 8.817847 -16.890117 -10.208869 6.506290 0.000000 0.000000 0.000000 0.000000 0.000000 0.000000 -0.035901 0.066780 53.338880 0.547606 -1.187326 0.273983 -14.877155 -1.104004 18.261620 0.000000 0.000000 0.000000 -0.035901 0.066780 53.338880 -0.000000 0.000000 0.000000 6.687289 -6.596825 -4.603051 0.000000 0.000000 0.000000
-57.951324 75.444024 368.725278 -0.030787 -0.112504 -53.607232 -0.072296 0.091533 53.607259 -0.000000 0.000000 0.000000 -0.000000 0.000000 0.000000 0.000000 0.000000 0.000000 -0.000000 0.000000 0.000000 -3.129519 -1.445302 -4.045999 1.834713 0.698142 9.546222 -2.559930 1.452879 0.053598 0.000000 0.000000 0.000000 0.000000 0.000000 0.000000 0.298111 -0.792473 -0.166013 -0.417614 -2.413171 -2.624035 -3.319337 0.073810 11.616374 -18.904615 -10.988745 6.239060 0.000000 0.000000 0.000000 0.000000 0.000000 0.000000 -0.072296 0.091533 53.607259 0.583536 -1.422369 0.320102 -17.998189 -2.116004 22.122799 0.000000 0.000000 0.000000 -0.072296 0.091533 53.607259 -0.000000 0.000000 0.000000 8.283823 -8.402916 -5.663733 0.000000 0.000000 0.000000
-57.937697 75.419969 368.739543 -0.023435 -0.166759 -53.857854 -0.120845 0.117277 53.857944 -0.000000 0.000000 0.000000 -0.070620 0.980139 -0.386990 0.000000 0.000000 0.000000 -0.000000 0.000000 0.000000 -3.322355 -1.587846 -4.480223 2.450129 1.129185 9.079581 -2.599028 1.433340 1.271714 0.000000 0.000000 0.000000 0.000000 0.000000 0.000000 0.349980 -0.883210 -0.187346 -0.197581 -1.506158 -4.337533 -2.881725 -0.436042 14.336570 -19.524650 -10.742881 5.158760 0.000000 0.000000 0.000000 0.000000 0.000000 0.000000 -0.120845 0.117277 53.857944 0.545383 -1.576594 0.342311 -20.135201 -3.072089 24.706943 0.000000 0.000000 0.000000 -0.120845 0.117277 53.857944 -0.000000 0.000000 0.000000 9.539086 -9.925363 -6.496290 0.000000 0.000000 0.000000
-57.910485 75.382708 368.725822 0.009348 -0.208674 -53.947549 -0.174210 0.115253 53.947742 -0.000000 0.000000 0.000000 -0.123037 1.254379 -0.488543 0.000000 0.000000 0.000000 -0.000000 0.000000 0.000000 -3.023536 -1.747317 -4.941316 2.838689 1.888824 5.958796 1.211096 2.349356 5.086863 0.000000 0.000000 0.000000 0.000000 0.000000 0.000000 -2.520881 -1.892264 0.052302 2.978914 -0.169940 -7.392488 -2.051077 -0.187607 19.510398 -19.506696 -8.626091 0.564125 0.000000 0.000000 0.000000 0.000000 0.000000 0.000000 -0.174210 0.115253 53.947742 0.132768 -1.335490 0.246430 -17.641584 -0.892410 25.285006 0.000000 0.000000 0.000000 -0.174210 0.115253 53.947742 -0.000000 0.000000 0.000000 10.981753 -11.621001 -7.397881 0.000000 0.000000 0.000000
-57.877768 75.371530 368.724970 0.043941 -0.280634 -54.161353 -0.253230 0.128690 54.161745 -0.000000 0.000000 0.000000 -0.132085 1.573712 -0.616468 0.000000 0.000000 0.000000 0.534649 0.965423 -0.338227 -2.799780 -2.723850 -4.595401 4.042230 2.615366 4.328233 1.476563 2.180877 5.461153 0.000000 0.000000 0.000000 0.000000 0.000000 0.000000 -2.528664 -1.366148 0.146678 3.753550 1.441453 -10.729747 -0.356954 -0.318582 22.407649 -16.190172 -5.942253 -4.312981 0.000000 0.000000 0.000000 0.000000 0.000000 0.000000 -0.253230 0.128690 54.161745 -0.159632 -1.156535 0.178202 -23.759782 -7.726330 25.207388 0.000000 0.000000 0.000000 -0.253230 0.128690 54.161745 -0.000000 0.000000 0.000000 11.820589 -12.864381 -7.981261 0.000000 0.000000 0.000000
-57.847367 75.376937 368.730811 0.087640 -0.351307 -54.381745 -0.336623 0.133350 54.382406 -0.000000 0.000000 0.000000 -0.253264 1.786682 -0.678992 0.000000 0.000000 0.000000 0.853664 1.247337 -0.497611 -1.905275 -2.814382 -3.824389 2.643887 2.322687 2.337439 3.060928 2.265677 5.655653 0.000000 0.000000 0.000000 0.000000 0.000000 0.000000 1.144653 0.377919 -0.120339 1.387951 3.604931 -13.769641 3.168610 0.217344 22.338581 -11.937881 -6.188252 -1.246233 0.000000 0.000000 0.000000 0.000000 0.000000 0.000000 -0.336623 0.133350 54.382406 -0.073143 -1.418809 0.234042 -27.512000 -10.378884 27.907883 0.000000 0.000000 0.000000 -0.336623 0.133350 54.382406 -0.000000 0.000000 0.000000 11.492878 -13.602979 -8.129453 0.000000 0.000000 0.000000
-57.788603 75.418742 368.722141 0.110443 -0.441293 -54.375386 -0.423037 0.167264 54.376429 -0.000000 0.000000 0.000000 -0.451296 2.013139 -0.731119 0.000000 0.000000 0.000000 1.092368 1.442249 -0.615269 -0.413055 -2.363442 -1.908275 1.329408 1.809239 -2.107992 4.187165 1.883396 6.032450 0.000000 0.000000 0.000000 0.000000 0.000000 0.000000 9.845072 3.237667 -1.266735 -5.479618 7.197228 -14.802155 6.179532 -3.615321 11.640844 -10.108869 -8.462301 11.596829 0.000000 0.000000 0.000000 0.000000 0.000000 0.000000 -0.423037 0.167264 54.376429 -0.051206 -1.675053 0.280694 -27.025771 -9.636313 27.931650 0.000000 0.000000 0.000000 -0.423037 0.167264 54.376429 -0.000000 0.000000 0.000000 11.069324 -12.971200 -7.835336 0.000000 0.000000 0.000000
-57.734704 75.407326 368.775067 0.056831 -0.614858 -54.904968 -0.535756 0.306998 54.906708 -0.000000 0.000000 0.000000 -0.585900 2.412983 -0.864552 0.000000 0.000000 0.000000 0.680595 1.851388 -0.528243 -1.286917 -2.266948 -0.586863 1.735467 1.091634 -3.755244 3.660297 -0.392990 0.667413 0.000000 0.000000 0.000000 0.000000 0.000000 0.000000 22.315794 2.845839 -3.460859 -15.807256 15.716942 -14.911674 19.129101 -3.974097 -4.170662 -11.762412 -12.284475 31.781460 0.000000 0.000000 0.000000 0.000000 0.000000 0.000000 -1.823967 0.587700 54.574729 0.416701 -2.980736 0.633975 -25.599441 -7.417034 30.146560 0.000000 0.000000 0.000000 -0.535756 0.306998 54.906708 -0.000000 0.000000 0.000000 10.659005 -11.218057 -7.192399 0.000000 0.000000 0.000000
-57.712866 75.334414 368.896696 -0.092752 -0.871329 -56.148655 -0.014979 -0.437081 56.142195 -0.124861 -0.131276 -0.019152 -0.435310 4.169671 -0.939880 0.000000 0.000000 0.000000 0.048961 3.806520 -0.151624 -3.434859 -2.364542 1.033876 -0.192838 -0.653816 -5.821704 5.343473 -1.385084 -3.796856 0.000000 0.000000 0.000000 0.000000 0.000000 0.000000 38.322997 -1.197240 -6.055082 -29.738989 32.650991 -12.828602 37.542357 -12.591376 -21.648490 -15.124180 -8.663498 64.472334 0.000000 0.000000 0.000000 0.000000 0.000000 0.000000 -2.969072 0.981535 55.577788 0.694955 -3.943732 0.886270 -20.021656 -5.045310 21.197016 0.000000 0.000000 0.000000 -0.567073 1.722663 56.212700 -1.841234 -0.451923 -0.180376 10.447796 -8.421621 -5.895515 0.000000 0.000000 0.000000
-57.799013 75.226170 369.027868 -0.415123 -1.173836 -58.174377 -0.070127 -0.773793 58.148652 -0.196554 -0.161177 -0.048783 0.563073 5.304419 -1.235874 0.000000 0.000000 0.000000 -0.970727 5.226465 0.454611 -7.504377 -2.849830 2.497513 -3.688488 -2.948242 -7.326089 8.495460 -1.386005 -9.324496 0.000000 0.000000 0.000000 0.000000 0.000000 0.000000 52.931412 -11.536669 -5.399303 -48.350696 56.478729 -4.945037 67.887010 -18.149608 -27.480760 -35.846425 -4.650746 87.763584 0.000000 0.000000 0.000000 0.000000 0.000000 0.000000 -3.957736 1.428735 57.412497 1.180664 -5.117497 1.208896 -20.542527 -6.442182 17.490720 0.000000 0.000000 0.000000 -0.629471 3.166732 58.297373 -2.927639 -1.196760 -0.229722 9.965172 -7.364573 -5.551656 0.000000 0.000000 0.000000
